<svg xmlns="http://www.w3.org/2000/svg" width="80" height="80" viewBox="0 0 80 80">
  <g id="Grupo_83" data-name="Grupo 83" transform="translate(-1250 -273)">
    <g id="Retângulo_440" data-name="Retângulo 440" transform="translate(1250 273)" fill="#fff" stroke="#707070" stroke-width="3">
      <rect width="80" height="80" rx="10" stroke="none"/>
      <rect x="1.5" y="1.5" width="77" height="77" rx="8.5" fill="none"/>
    </g>
    <g id="Retângulo_448" data-name="Retângulo 448" transform="translate(1258 306)" fill="#707070" stroke="#707070" stroke-width="1">
      <rect width="14" height="14" rx="2" stroke="none"/>
      <rect x="0.5" y="0.5" width="13" height="13" rx="1.5" fill="none"/>
    </g>
    <g id="Retângulo_452" data-name="Retângulo 452" transform="translate(1258 322)" fill="#707070" stroke="#707070" stroke-width="1">
      <rect width="14" height="15" rx="2" stroke="none"/>
      <rect x="0.5" y="0.5" width="13" height="14" rx="1.5" fill="none"/>
    </g>
    <g id="Retângulo_442" data-name="Retângulo 442" transform="translate(1275 289)" fill="#707070" stroke="#707070" stroke-width="1">
      <rect width="13" height="15" rx="2" stroke="none"/>
      <rect x="0.5" y="0.5" width="12" height="14" rx="1.5" fill="none"/>
    </g>
    <g id="Retângulo_447" data-name="Retângulo 447" transform="translate(1275 306)" fill="#707070" stroke="#707070" stroke-width="1">
      <rect width="13" height="14" rx="2" stroke="none"/>
      <rect x="0.5" y="0.5" width="12" height="13" rx="1.5" fill="none"/>
    </g>
    <g id="Retângulo_451" data-name="Retângulo 451" transform="translate(1275 322)" fill="#707070" stroke="#707070" stroke-width="1">
      <rect width="13" height="15" rx="2" stroke="none"/>
      <rect x="0.5" y="0.5" width="12" height="14" rx="1.5" fill="none"/>
    </g>
    <g id="Retângulo_443" data-name="Retângulo 443" transform="translate(1292 289)" fill="#707070" stroke="#707070" stroke-width="1">
      <rect width="13" height="15" rx="2" stroke="none"/>
      <rect x="0.5" y="0.5" width="12" height="14" rx="1.5" fill="none"/>
    </g>
    <g id="Retângulo_446" data-name="Retângulo 446" transform="translate(1292 306)" fill="#fff" stroke="#707070" stroke-width="1">
      <rect width="13" height="14" rx="2" stroke="none"/>
      <rect x="0.5" y="0.5" width="12" height="13" rx="1.5" fill="none"/>
    </g>
    <g id="Retângulo_450" data-name="Retângulo 450" transform="translate(1292 322)" fill="#707070" stroke="#707070" stroke-width="1">
      <rect width="13" height="15" rx="2" stroke="none"/>
      <rect x="0.5" y="0.5" width="12" height="14" rx="1.5" fill="none"/>
    </g>
    <g id="Retângulo_444" data-name="Retângulo 444" transform="translate(1308 289)" fill="#707070" stroke="#707070" stroke-width="1">
      <rect width="14" height="15" rx="2" stroke="none"/>
      <rect x="0.5" y="0.5" width="13" height="14" rx="1.5" fill="none"/>
    </g>
    <g id="Retângulo_445" data-name="Retângulo 445" transform="translate(1308 306)" fill="#707070" stroke="#707070" stroke-width="1">
      <rect width="14" height="14" rx="2" stroke="none"/>
      <rect x="0.5" y="0.5" width="13" height="13" rx="1.5" fill="none"/>
    </g>
    <g id="Retângulo_449" data-name="Retângulo 449" transform="translate(1308 322)" fill="#707070" stroke="#707070" stroke-width="1">
      <rect width="14" height="15" rx="2" stroke="none"/>
      <rect x="0.5" y="0.5" width="13" height="14" rx="1.5" fill="none"/>
    </g>
    <g id="Retângulo_473" data-name="Retângulo 473" transform="translate(1250 273)" fill="#fff" stroke="#707070" stroke-width="3">
      <rect width="80" height="80" rx="10" stroke="none"/>
      <rect x="1.5" y="1.5" width="77" height="77" rx="8.5" fill="none"/>
    </g>
    <g id="Retângulo_474" data-name="Retângulo 474" transform="translate(1258 306)" fill="#707070" stroke="#707070" stroke-width="1">
      <rect width="14" height="14" rx="2" stroke="none"/>
      <rect x="0.5" y="0.5" width="13" height="13" rx="1.5" fill="none"/>
    </g>
    <g id="Retângulo_475" data-name="Retângulo 475" transform="translate(1258 322)" fill="#707070" stroke="#707070" stroke-width="1">
      <rect width="14" height="15" rx="2" stroke="none"/>
      <rect x="0.5" y="0.5" width="13" height="14" rx="1.5" fill="none"/>
    </g>
    <g id="Retângulo_476" data-name="Retângulo 476" transform="translate(1275 289)" fill="#707070" stroke="#707070" stroke-width="1">
      <rect width="13" height="15" rx="2" stroke="none"/>
      <rect x="0.5" y="0.5" width="12" height="14" rx="1.5" fill="none"/>
    </g>
    <g id="Retângulo_477" data-name="Retângulo 477" transform="translate(1275 306)" fill="#707070" stroke="#707070" stroke-width="1">
      <rect width="13" height="14" rx="2" stroke="none"/>
      <rect x="0.5" y="0.5" width="12" height="13" rx="1.5" fill="none"/>
    </g>
    <g id="Retângulo_478" data-name="Retângulo 478" transform="translate(1275 322)" fill="#707070" stroke="#707070" stroke-width="1">
      <rect width="13" height="15" rx="2" stroke="none"/>
      <rect x="0.5" y="0.5" width="12" height="14" rx="1.5" fill="none"/>
    </g>
    <g id="Retângulo_479" data-name="Retângulo 479" transform="translate(1292 289)" fill="#707070" stroke="#707070" stroke-width="1">
      <rect width="13" height="15" rx="2" stroke="none"/>
      <rect x="0.5" y="0.5" width="12" height="14" rx="1.5" fill="none"/>
    </g>
    <g id="Retângulo_480" data-name="Retângulo 480" transform="translate(1292 306)" fill="#fff" stroke="#707070" stroke-width="1">
      <rect width="13" height="14" rx="2" stroke="none"/>
      <rect x="0.5" y="0.5" width="12" height="13" rx="1.5" fill="none"/>
    </g>
    <g id="Retângulo_481" data-name="Retângulo 481" transform="translate(1292 322)" fill="#707070" stroke="#707070" stroke-width="1">
      <rect width="13" height="15" rx="2" stroke="none"/>
      <rect x="0.5" y="0.5" width="12" height="14" rx="1.5" fill="none"/>
    </g>
    <g id="Retângulo_482" data-name="Retângulo 482" transform="translate(1308 289)" fill="#707070" stroke="#707070" stroke-width="1">
      <rect width="14" height="15" rx="2" stroke="none"/>
      <rect x="0.5" y="0.5" width="13" height="14" rx="1.5" fill="none"/>
    </g>
    <g id="Retângulo_483" data-name="Retângulo 483" transform="translate(1308 306)" fill="#707070" stroke="#707070" stroke-width="1">
      <rect width="14" height="14" rx="2" stroke="none"/>
      <rect x="0.5" y="0.5" width="13" height="13" rx="1.5" fill="none"/>
    </g>
    <g id="Retângulo_484" data-name="Retângulo 484" transform="translate(1308 322)" fill="#707070" stroke="#707070" stroke-width="1">
      <rect width="14" height="15" rx="2" stroke="none"/>
      <rect x="0.5" y="0.5" width="13" height="14" rx="1.5" fill="none"/>
    </g>
  </g>
</svg>
