<svg xmlns="http://www.w3.org/2000/svg" width="256.148" height="41.711" viewBox="0 0 256.148 41.711">
  <g id="logo" transform="translate(-0.001)">
    <path id="Caminho_1" data-name="Caminho 1" d="M.158,14.813c-.392-.678.055-1.135,1-1.022l3.02.37,3.023.37c.95.11,1.27.66.71,1.23l-1.76,1.8-1.77,1.81a1.026,1.026,0,0,1-1.71-.206l-1.25-2.17-1.26-2.17ZM6.715,35.058c-.96,0-1.173-.755-.474-1.687l2.25-2.98,2.24-2.98c.7-.93,1.48-.93,1.74,0l.84,2.99.84,2.98a1.251,1.251,0,0,1-1.26,1.69H6.72ZM35.747,19.335l-.606.027c-.23.012-.95-.24-.52-.854l.29-.415.29-.415a.611.611,0,0,1,.99-.038l.32.386.32.387c.478.58-.23.884-.46.9l-.6.027Zm.5-5.413-.8.33-.8.33c-.3.12-.75.033-.62-.448l.18-.69.184-.694a.492.492,0,0,1,.75-.306l.606.363.61.364c.427.26.16.64-.13.76ZM34,8.887l-.91.646-.908.646c-.326.23-.835.23-.813-.34l.03-.93.03-.93a.574.574,0,0,1,.78-.55l.87.28.87.28c.534.17.355.65.033.88Zm-4.368-4.7-.57,1.3-.57,1.3c-.2.452-.7.73-1.007.165l-.567-1.035-.565-1.035a.678.678,0,0,1,.454-1.028l1.136-.266,1.136-.264c.62-.145.74.416.55.864ZM21.21.207c.342-.343.687-.147.77.435l.273,1.87.27,1.867c.084.58-.192.86-.62.62l-1.366-.77-1.366-.77a.641.641,0,0,1-.15-1.06l1.1-1.1,1.1-1.1ZM11.483,1.563c.13-.623.652-.656,1.16-.073l1.635,1.866,1.634,1.867c.51.583.4,1.088-.238,1.128l-2.055.13-2.06.13a.834.834,0,0,1-.93-1.05l.42-1.99.42-1.99ZM4.66,6.4c-.01-.67.512-.825,1.17-.35L7.935,7.572l2.106,1.52c.66.474.67,1.015.03,1.207L8,10.91l-2.068.617a.873.873,0,0,1-1.19-.86L4.7,8.54ZM.475,25.434c-.744-.4-.6-1.067.33-1.5l2.964-1.387,2.96-1.387c.92-.434,1.53-.114,1.35.715L7.5,24.525l-.59,2.654a1.1,1.1,0,0,1-1.68.78L2.86,26.7.474,25.436ZM21.555,41.2c-.713.916-1.59.556-1.96-.8l-1.18-4.355-1.18-4.353c-.37-1.36.21-2.1,1.293-1.657L22,31.457l3.47,1.42a1.516,1.516,0,0,1,.666,2.462l-2.29,2.93L21.556,41.2Zm14.566-5.892c-.13,1.5-1.33,1.724-2.69.51l-4.35-3.886-4.35-3.885c-1.36-1.21-1.25-2.42.24-2.7l4.77-.9,4.77-.9a1.963,1.963,0,0,1,2.46,2.2l-.412,4.79-.414,4.79Zm162.15-15.845c-4.4-6.113-14.28-6.67-19.2-.9a10.729,10.729,0,0,0-2.33,5.274H200a10.806,10.806,0,0,0-1.72-4.38M200,28.96l.03-.166h3.583l-.02.22a14.7,14.7,0,0,1-2.338,6.47,16.317,16.317,0,0,1-7.09,5.326,20.1,20.1,0,0,1-6.5.88c-8.723,0-14.83-6.944-14.83-15.392,0-10.076,7.795-15.29,15.49-15.333,7.713-.044,15.49,5.1,15.48,15.708v.2l-27.273-.01c.62,14.062,21.14,15.167,23.46,2.095" fill="#213140" fill-rule="evenodd"/>
    <path id="Caminho_2" data-name="Caminho 2" d="M80.795,41.69h3.448V10.81H80.795M62.42,38.262c6.088.024,12.083-3.888,12.083-11.59v-1.03a11.8,11.8,0,0,0-2.716-7.305,5.442,5.442,0,0,0-.772-.863c-7.97-6.788-20.68-2.26-20.68,8.823,0,7.987,6.007,11.94,12.086,11.965m-4.87,2.75a14.581,14.581,0,0,1-10.48-14.327c0-8.662-.07-17.72-.11-26.382v-.2L50.45,0l.05,16.167c8.29-9.852,27.43-5.67,27.43,10.224,0,9.3-6.73,15.3-15.77,15.3a15.4,15.4,0,0,1-4.608-.67m99.956.68V27.74c0-4.15,1.188-8.607,4.114-11.8a16.879,16.879,0,0,1,12.41-5.186l.5,3.5a14.78,14.78,0,0,0-8.44,2.39,14.888,14.888,0,0,0-3.822,4.7,16.072,16.072,0,0,0-1.235,5.41c-.12,1.81-.026,14.94-.026,14.94h-3.5ZM143.27,25.64a11.614,11.614,0,0,0-2.678-7.19,5.348,5.348,0,0,0-.744-.833c-7.872-6.7-20.37-2.213-20.37,8.68,0,7.863,5.9,11.755,11.9,11.78s11.9-3.83,11.9-11.4v-1.03Zm-27.288.75c0-15.912,19.182-20.087,27.43-10.223l.047-16.14h3.49v.2c-.04,9.13-.12,17.794-.12,26.456a14.581,14.581,0,0,1-10.49,14.328,15.289,15.289,0,0,1-4.61.676c-9.04,0-15.77-6.008-15.77-15.3Zm139.435,11.8h.172l.56,3.495h-.24c-10.49,0-17.02-7.21-17.02-16.99V.03h3.49V10.72h12.84v3.5h-12.84V25.64a13.181,13.181,0,0,0,5.08,10.157,14.312,14.312,0,0,0,7.942,2.4m-19.65,3.495h-13.98c-12.96,0-18.688-14.65-11.907-24.67a13.7,13.7,0,0,1,7.57-5.33,15.774,15.774,0,0,1,3.743-.69c1.25-.1,2.512-.1,3.78-.1h10.8v3.59H224.3c-6.378,0-11.18,1.75-13.145,8.24-1.66,5.48.723,11.93,6.02,14.39,2.1.97,4.87,1.06,7.22,1.06h11.356v3.49Zm-85.26,0h3.45V10.81h-3.45" fill="#213140" fill-rule="evenodd"/>
    <path id="Caminho_3" data-name="Caminho 3" d="M93.212,38.288h23.3v3.4H87.795V38.972l23.4-24.664h-23.4v-3.5H116.5l0,.2c.03,1.767.057,2.39-.33,3.073a4.088,4.088,0,0,1-.785.935c-.29.264-.67.73-1.16,1.176-.434.4-21.02,22.092-21.02,22.092" fill="#213140" fill-rule="evenodd"/>
  </g>
</svg>
